<?xml version="1.0" encoding="utf-8"?>
<!-- Generator: Adobe Illustrator 21.0.0, SVG Export Plug-In . SVG Version: 6.00 Build 0)  -->
<svg version="1.1" id="Layer_1" xmlns="http://www.w3.org/2000/svg" xmlns:xlink="http://www.w3.org/1999/xlink" x="0px" y="0px"
	 viewBox="0 0 185 73" style="enable-background:new 0 0 185 73;" xml:space="preserve">
<style type="text/css">
	.st0{fill:#C4AE31;}
	.st1{display:none;fill:#E4BD73;}
	.st2{fill:none;}
</style>
<g id="Layer_2">
	<g id="Layer_1-2">
		<path class="st0" d="M9.6,73c-1,0-1.6-0.1-2.4-0.3c-4.1-1-7.1-4.7-7.2-9.1V9.5C0.2,4.2,4.4,0,9.6,0.1h153.5c0.6,0,1.2,0.4,1.2,1.1
			v0.1c0,0.6-0.5,1.1-1.1,1.2h-0.1H9.6c-3.9-0.1-7.1,3-7.2,7v0.1v54.1c0,3.9,3.2,7.1,7.1,7.1h0.1h165.8c3.9,0.1,7.1-3,7.2-7v-0.1
			v-26c0-0.6,0.5-1.1,1.1-1.1h0.1c0.7,0.1,1.2,0.7,1.2,1.3v25.8c-0.1,5.2-4.3,9.1-9.4,9.3C175.3,73,9.6,73,9.6,73z"/>
		<path class="st0" d="M78.2,54.2c-9.1,0.1-16.7-7.2-16.8-16.4l0,0c0.3-9.4,8.1-16.6,17.4-16.3c8.8,0.3,15.9,7.5,16.2,16.3
			C94.8,46.9,87.3,54.3,78.2,54.2L78.2,54.2z M78.2,24.1c-7.5-0.1-13.8,5.9-13.9,13.5l0,0c0.3,7.8,6.8,13.8,14.4,13.5
			C85.9,50.8,91.7,45,92,37.6C91.9,30,85.7,24,78.2,24.1L78.2,24.1z M134.1,54.1V21.3h13c9.1-0.1,16.6,7.3,16.7,16.4
			c0,9-7.5,16.3-16.7,16.3H134.1z M147.1,51.2c7.5,0.1,13.7-6,13.8-13.5c-0.1-7.6-6.3-13.6-13.8-13.5H137v27
			C137,51.2,147.1,51.2,147.1,51.2z M105.8,54.1V21.3h2.9v30h14v2.8H105.8z M38.3,54.1c-9.1,0.1-16.7-7.2-16.8-16.4l0,0
			c0-9.1,7.6-16.4,16.9-16.4c4.2-0.1,8.2,1.4,11.4,4.2l0.4,0.3l-1.7,2.2L48,27.5c-2.7-2.3-6.1-3.6-9.7-3.6c-7.7,0-14,6.2-14,13.6
			s6.3,13.6,14,13.6c3.2,0,6.3-1,8.9-2.9v-8.1h-6.5v-2.7h9.2v12.2l-0.2,0.2C46.5,52.5,42.4,54.1,38.3,54.1z"/>
		<path class="st0" d="M173.6,26.9c-0.6,0-1.2-0.5-1.2-1.1v-0.1c0-1.5-0.4-2.9-1.2-4.2c-0.9-1.2-2-2.1-3.4-2.6
			c-0.3-0.1-0.6-0.4-0.7-0.7c-0.2-0.6,0.2-1.3,0.8-1.5c1.4-0.5,2.6-1.4,3.4-2.6c0.8-1.3,1.2-2.7,1.2-4.2c0-0.6,0.6-1.2,1.2-1.2
			c0.6,0,1.2,0.5,1.2,1.1v0.1c-0.1,1.5,0.4,3,1.2,4.2s2,2.1,3.4,2.6c0.3,0.1,0.6,0.4,0.7,0.7c0.2,0.6-0.2,1.3-0.8,1.5
			c-1.4,0.5-2.6,1.4-3.4,2.6c-0.8,1.3-1.2,2.7-1.2,4.2C174.8,26.3,174.2,26.9,173.6,26.9z M170.7,17.7c1,0.6,1.8,1.5,2.5,2.4
			c0.2,0.3,0.4,0.5,0.5,0.8c0.2-0.3,0.3-0.5,0.5-0.8c0.6-0.9,1.5-1.8,2.4-2.4c-1-0.6-1.8-1.4-2.4-2.4c-0.2-0.3-0.4-0.5-0.5-0.8
			c-0.2,0.3-0.3,0.5-0.5,0.8C172.5,16.2,171.6,17,170.7,17.7z"/>
	</g>
</g>
<path class="st1" d="M182.9,35c0-0.4,0.3-0.7,0.7-0.7c0.4,0,0.7,0.3,0.7,0.7v33.5c0,1.2-0.5,2.4-1.3,3.2c-0.8,0.8-1.9,1.3-3.2,1.3
	H4.5c-1.2,0-2.4-0.5-3.2-1.3l0,0C0.5,70.8,0,69.7,0,68.5V4.6c0-1.2,0.5-2.4,1.3-3.2s1.9-1.3,3.2-1.3h162c0.4,0,0.7,0.3,0.7,0.7
	c0,0.4-0.3,0.7-0.7,0.7H4.5C3.7,1.6,2.9,2,2.4,2.5C1.8,3,1.5,3.8,1.5,4.6v63.9c0,0.8,0.3,1.6,0.9,2.1l0,0c0.5,0.5,1.3,0.9,2.1,0.9
	h175.4c0.8,0,1.6-0.3,2.1-0.9c0.5-0.5,0.9-1.3,0.9-2.1V35z"/>
<line class="st2" x1="170.1" y1="73" x2="9.4" y2="73"/>
</svg>
